<svg
    xmlns="http://www.w3.org/2000/svg"
    width="30"
    height="30"
    viewBox="0 0 24 24"
    fill="#fef3c7"
>
    <path
        fill-rule="evenodd"
        d="M2.544 5.168C3.047 4.469 3.865 4 4.8 4h14.4c.936 0 1.753.469 2.256 1.168.344.478.544 1.067.544 1.699v10.267C22 18.682 20.78 20 19.2 20H4.8C3.22 20 2 18.682 2 17.133V6.867c0-.632.201-1.221.544-1.699zM4.933 6l6.327 6.965a1 1 0 0 0 1.48 0L19.067 6H4.933zM20 7.948l-5.78 6.362a3 3 0 0 1-4.441 0L4 7.948v9.186c0 .513.392.867.8.867h14.4c.408 0 .8-.353.8-.867V7.948z"
    />
</svg>
