<svg
    xmlns="http://www.w3.org/2000/svg"
    fill="#fef3c7"
    width="35"
    height="35"
    viewBox="-6 0 32 32"
>
    <path
        d="M18.36 9.28c.48-1.72-.24-3.6-.28-3.72-.12-.28-.4-.52-.72-.52-.08 0-1.92-.16-3.76 1.24a24.28 24.28 0 0 0-3.16-.36h-.08a24.28 24.28 0 0 0-3.16.36c-1.84-1.4-3.68-1.24-3.76-1.24-.32.04-.6.24-.72.52-.04.08-.8 2-.28 3.72-.92 1.28-1.64 2.96-1 5.96.6 2.72 2.84 4.24 5.16 4.76-.2.56-.28 1.24-.36 1.96-.96.04-1.56-.52-2.4-1.4-.72-.76-1.52-1.64-2.84-1.92-.44-.12-.88.16-1 .64-.08.48.2.92.68 1 .76.16 1.28.72 1.92 1.4.84.88 1.8 1.96 3.52 1.96h.04l.12 2.52c.04.48.44.8.92.76s.8-.44.76-.92c-.24-2.72-.04-5.6.4-6 .32-.2.52-.56.4-.96-.08-.36-.4-.64-.8-.64-.36 0-4.12-.2-4.84-3.52-.6-2.72.16-3.92.96-4.88.2-.24.24-.6.12-.92-.32-.68-.2-1.64-.04-2.28.56.08 1.4.32 2.28 1.08.2.2.48.24.76.2 1.24-.32 2.92-.4 3.2-.4.24 0 1.96.08 3.2.4a.76.76 0 0 0 .76-.2c.88-.76 1.76-1 2.28-1.08.16.6.28 1.56-.04 2.28-.12.28-.08.64.12.92.8.96 1.52 2.16.96 4.88-.72 3.32-4.48 3.52-4.92 3.56-.4 0-.72.28-.8.64a.92.92 0 0 0 .4.96c.48.4.68 3.24.44 6-.04.48.32.88.76.92h.08a.83.83 0 0 0 .84-.76c.16-1.76.28-4.48-.28-6.2 2.32-.48 4.56-2.04 5.16-4.76.64-3-.04-4.68-1-5.96z"
    />
</svg>
